<?xml version="1.0" standalone="no"?><!DOCTYPE svg PUBLIC "-//W3C//DTD SVG 1.1//EN" "http://www.w3.org/Graphics/SVG/1.1/DTD/svg11.dtd"><svg class="icon" width="200px" height="200.00px" viewBox="0 0 1024 1024" version="1.1" xmlns="http://www.w3.org/2000/svg"><path d="M621.622166 856.342569l46.428212-203.768262h108.332494l15.47607-72.221662h-147.02267l-46.428212 203.768262h-275.989924l10.31738-36.110831h239.879094l46.428211-203.768262h183.133501l15.476071-67.062973h-224.403023l-46.428211 203.768262h-198.609572l10.31738-30.952141h152.18136l36.110832-172.816121h-157.340051l10.317381-36.110831h239.879093l25.793451-108.332494h177.974811l15.47607-67.062972h-224.403022l-30.952141 103.173804h-193.450882l10.31738-41.269522h157.340051l30.952141-98.015113h255.355164l15.47607-67.062972h-301.783375l-25.793451 103.173803h-157.340051l-46.428211 208.926952h-162.498741l-36.110831 172.816121h162.498741l-41.269522 203.768262h350.790932v5.15869z m-420.433249-270.831234l10.31738-36.110831h118.649874l-10.31738 36.110831h-118.649874z m165.078086 0l10.31738-36.110831h118.649874l-5.15869 36.110831h-123.808564z" fill="#108C3E" /></svg>
